<?xml version="1.0" encoding="UTF-8"?>
<svg version="1.1" viewBox="0 0 1274 400" preserveAspectRatio="xMidYMid meet" xmlns="http://www.w3.org/2000/svg" xmlns:xlink="http://www.w3.org/1999/xlink" onload="initialize(evt)"><!--SVG SMIL Animation Export (c) 2015 Animatron LLC--><!--Version 1.0 by squared9--><defs><mask id="canvasMask"><rect x="0" y="0" width="1274px" height="400px" fill="#FFFFFF" stroke="none"/></mask></defs><rect fill="rgba(255,255,255,0.0)" stroke="none" x="0" y="0" width="1274px" height="400px"/><g id="id9a112c30068040a7ebde3602" mask="url(#canvasMask)"><image id="id027166635a79fd2ec04581e4" xlink:href="https://assets.animatron.io/3cc8ef56829334d1d876fbaa.png" width="3794px" height="452px" visibility="hidden"><set attributeName="visibility" attributeType="CSS" to="visible" begin="0s; loop.end" fill="none"/><animateTransform attributeName="transform" type="translate" additive="replace" begin="0s; loop.end" dur="3s" repeatCount="1" fill="none" from="386.0 207.0" to="874.0 223.0"/><animateTransform attributeName="transform" type="translate" additive="replace" begin="3s; loop.end + 3s" dur="3s" repeatCount="1" fill="none" from="874.0 223.0" to="386.0 223.0"/><animateTransform attributeName="transform" type="scale" additive="sum" begin="0s; loop.end" dur="3s" repeatCount="1" fill="none" from="0.48008850817079596 0.48008850817079596" to="0.48008850817079596 0.48008850817079596" calcMode="discrete"/><animateTransform attributeName="transform" type="scale" additive="sum" begin="3s; loop.end + 3s" dur="3s" repeatCount="1" fill="none" from="0.48008850817079596 0.48008850817079596" to="0.48008850817079596 0.48008850817079596" calcMode="discrete"/><animateTransform attributeName="transform" type="translate" additive="sum" begin="0s; loop.end" dur="3s" repeatCount="1" fill="none" from="-1897.0 -226.0" to="-1897.0 -226.0" calcMode="discrete"/><animateTransform attributeName="transform" type="translate" additive="sum" begin="3s; loop.end + 3s" dur="3s" repeatCount="1" fill="none" from="-1897.0 -226.0" to="-1897.0 -226.0" calcMode="discrete"/></image><image id="id463cfe0b2227b77d25666073" xlink:href="https://assets.animatron.io/3bc8ef56f78265523670a9a2.png" width="3815px" height="569px" visibility="hidden"><set attributeName="visibility" attributeType="CSS" to="visible" begin="0s; loop.end" fill="none"/><animateTransform attributeName="transform" type="translate" additive="replace" begin="0s; loop.end" dur="3s" repeatCount="1" fill="none" from="890.76 140.76" to="370.76099999999997 140.76"/><animateTransform attributeName="transform" type="translate" additive="replace" begin="3s; loop.end + 3s" dur="3s" repeatCount="1" fill="none" from="370.76 140.76" to="890.76 140.76"/><animateTransform attributeName="transform" type="scale" additive="sum" begin="0s; loop.end" dur="3s" repeatCount="1" fill="none" from="0.4797890432503276 0.4797890432503276" to="0.4797890432503276 0.4797890432503276" calcMode="discrete"/><animateTransform attributeName="transform" type="scale" additive="sum" begin="3s; loop.end + 3s" dur="3s" repeatCount="1" fill="none" from="0.4797890432503276 0.4797890432503276" to="0.4797890432503276 0.4797890432503276" calcMode="discrete"/><animateTransform attributeName="transform" type="translate" additive="sum" begin="0s; loop.end" dur="3s" repeatCount="1" fill="none" from="-1907.0 -284.0" to="-1907.0 -284.0" calcMode="discrete"/><animateTransform attributeName="transform" type="translate" additive="sum" begin="3s; loop.end + 3s" dur="3s" repeatCount="1" fill="none" from="-1907.0 -284.0" to="-1907.0 -284.0" calcMode="discrete"/></image><image id="id1d6537674b7e2407933b9a55" xlink:href="https://assets.animatron.io/3ac8ef56d590dbddd1cc8ae2.png" width="3815px" height="503px" visibility="hidden"><set attributeName="visibility" attributeType="CSS" to="visible" begin="0s; loop.end" fill="none"/><animateTransform attributeName="transform" type="translate" additive="replace" begin="0s; loop.end" dur="3s" repeatCount="1" fill="none" from="485.0 190.73" to="973.0 190.999"/><animateTransform attributeName="transform" type="translate" additive="replace" begin="3s; loop.end + 3s" dur="3s" repeatCount="1" fill="none" from="973.0 191.0" to="485.0 191.0"/><animateTransform attributeName="transform" type="scale" additive="sum" begin="0s; loop.end" dur="3s" repeatCount="1" fill="none" from="0.5387674705111403 0.5387674705111403" to="0.5387674705111403 0.5387674705111403" calcMode="discrete"/><animateTransform attributeName="transform" type="scale" additive="sum" begin="3s; loop.end + 3s" dur="3s" repeatCount="1" fill="none" from="0.5387674705111403 0.5387674705111403" to="0.5387674705111403 0.5387674705111403" calcMode="discrete"/><animateTransform attributeName="transform" type="translate" additive="sum" begin="0s; loop.end" dur="3s" repeatCount="1" fill="none" from="-1907.0 -251.0" to="-1907.0 -251.0" calcMode="discrete"/><animateTransform attributeName="transform" type="translate" additive="sum" begin="3s; loop.end + 3s" dur="3s" repeatCount="1" fill="none" from="-1907.0 -251.0" to="-1907.0 -251.0" calcMode="discrete"/></image><image id="ide2a3a6bd5d0a710577a28e2d" xlink:href="https://assets.animatron.io/39c8ef5630fb9f56042e6701.png" width="3794px" height="361px" visibility="hidden"><set attributeName="visibility" attributeType="CSS" to="visible" begin="0s; loop.end" fill="none"/><animateTransform attributeName="transform" type="translate" additive="replace" begin="0s; loop.end" dur="3s" repeatCount="1" fill="none" from="893.0 239.0" to="373.0 239.0"/><animateTransform attributeName="transform" type="translate" additive="replace" begin="3s; loop.end + 3s" dur="3s" repeatCount="1" fill="none" from="373.0 239.0" to="893.0 239.0"/><animateTransform attributeName="transform" type="scale" additive="sum" begin="0s; loop.end" dur="3s" repeatCount="1" fill="none" from="0.4792243806009489 0.4792243806009489" to="0.4792243806009489 0.4792243806009489" calcMode="discrete"/><animateTransform attributeName="transform" type="scale" additive="sum" begin="3s; loop.end + 3s" dur="3s" repeatCount="1" fill="none" from="0.4792243806009489 0.4792243806009489" to="0.4792243806009489 0.4792243806009489" calcMode="discrete"/><animateTransform attributeName="transform" type="translate" additive="sum" begin="0s; loop.end" dur="3s" repeatCount="1" fill="none" from="-1897.0 -180.0" to="-1897.0 -180.0" calcMode="discrete"/><animateTransform attributeName="transform" type="translate" additive="sum" begin="3s; loop.end + 3s" dur="3s" repeatCount="1" fill="none" from="-1897.0 -180.0" to="-1897.0 -180.0" calcMode="discrete"/></image><image id="id1e56a21419668da358353613" xlink:href="https://assets.animatron.io/39c8ef5663246ad1148d8dd8.png" width="3811px" height="409px" visibility="hidden"><set attributeName="visibility" attributeType="CSS" to="visible" begin="0s; loop.end" fill="none"/><animateTransform attributeName="transform" type="translate" additive="replace" begin="0s; loop.end" dur="3s" repeatCount="1" fill="none" from="396.76 223.0" to="884.76 222.76"/><animateTransform attributeName="transform" type="translate" additive="replace" begin="3s; loop.end + 3s" dur="3s" repeatCount="1" fill="none" from="884.76 222.76" to="396.76 222.76"/><animateTransform attributeName="transform" type="scale" additive="sum" begin="0s; loop.end" dur="3s" repeatCount="1" fill="none" from="0.47921776436630803 0.47921776436630803" to="0.47921776436630803 0.47921776436630803" calcMode="discrete"/><animateTransform attributeName="transform" type="scale" additive="sum" begin="3s; loop.end + 3s" dur="3s" repeatCount="1" fill="none" from="0.47921776436630803 0.47921776436630803" to="0.47921776436630803 0.47921776436630803" calcMode="discrete"/><animateTransform attributeName="transform" type="translate" additive="sum" begin="0s; loop.end" dur="3s" repeatCount="1" fill="none" from="-1905.0 -204.0" to="-1905.0 -204.0" calcMode="discrete"/><animateTransform attributeName="transform" type="translate" additive="sum" begin="3s; loop.end + 3s" dur="3s" repeatCount="1" fill="none" from="-1905.0 -204.0" to="-1905.0 -204.0" calcMode="discrete"/></image><g id="id4abd0422bebda317bec1b818" visibility="hidden"><set attributeName="visibility" attributeType="CSS" to="visible" begin="0s; loop.end" fill="none"/><animateTransform attributeName="transform" type="translate" additive="replace" begin="0s; loop.end" dur="6s" repeatCount="1" fill="none" from="5.0 370.203" to="5.0 370.203" calcMode="discrete"/><animateTransform attributeName="transform" type="scale" additive="sum" begin="0s; loop.end" dur="6s" repeatCount="1" fill="none" from="1.0 1.0" to="1.0 1.0" calcMode="discrete"/><animateTransform attributeName="transform" type="translate" additive="sum" begin="0s; loop.end" dur="6s" repeatCount="1" fill="none" from="-0.0 -0.0" to="-0.0 -0.0" calcMode="discrete"/><g id="ida2510bc0c8e5dfd8987b9783" visibility="hidden"><set attributeName="visibility" attributeType="CSS" to="visible" begin="0s; loop.end" fill="none"/><animateTransform attributeName="transform" type="translate" additive="replace" begin="0s; loop.end" dur="6s" repeatCount="1" fill="none" from="0.0 0.0" to="0.0 0.0" calcMode="discrete"/><animateTransform attributeName="transform" type="translate" additive="sum" begin="0s; loop.end" dur="6s" repeatCount="1" fill="none" from="70.498 12.399" to="70.498 12.399" calcMode="discrete"/><g id="id3038de7416e5f88566b39dce" visibility="hidden"><set attributeName="visibility" attributeType="CSS" to="visible" begin="0s; loop.end" fill="none"/><animateTransform attributeName="transform" type="translate" additive="replace" begin="0s; loop.end" dur="6s" repeatCount="1" fill="none" from="-58.1 0.0" to="-58.1 0.0" calcMode="discrete"/><animateTransform attributeName="transform" type="translate" additive="sum" begin="0s; loop.end" dur="6s" repeatCount="1" fill="none" from="-0.0 -0.0" to="-0.0 -0.0" calcMode="discrete"/><path id="idf99ae14bcb91f6a97e1ecbbb" d="M 23.5,12.5 C 23.5,18.684 18.531,23.697 12.402,23.697 C 6.272,23.697 1.303,18.685 1.303,12.501 C 1.303,6.316 6.272,1.302 12.402,1.302 C 18.531,1.302 23.5,6.316 23.5,12.501 L 23.5,12.501 M 23.5,12.501 " style="fill: #38393a; fill-opacity: 1.0; stroke: none" visibility="hidden"><set attributeName="visibility" attributeType="CSS" to="visible" begin="0s; loop.end" fill="none"/><animateTransform attributeName="transform" type="translate" additive="replace" begin="0s; loop.end" dur="6s" repeatCount="1" fill="none" from="0.002 0.101" to="0.002 0.101" calcMode="discrete"/><animateTransform attributeName="transform" type="translate" additive="sum" begin="0s; loop.end" dur="6s" repeatCount="1" fill="none" from="-12.401 -12.5" to="-12.401 -12.5" calcMode="discrete"/></path><g id="id726bc71e541858789f185b91" visibility="hidden"><set attributeName="visibility" attributeType="CSS" to="visible" begin="0s; loop.end" fill="none"/><animateTransform attributeName="transform" type="translate" additive="replace" begin="0s; loop.end" dur="6s" repeatCount="1" fill="none" from="0.0 0.0" to="0.0 0.0" calcMode="discrete"/><animateTransform attributeName="transform" type="translate" additive="sum" begin="0s; loop.end" dur="6s" repeatCount="1" fill="none" from="-0.0 -0.0" to="-0.0 -0.0" calcMode="discrete"/><path id="id6518e5c5c609aa1a11b56bb6" d="M 12.399,0.5 C 5.8,0.5 0.5,5.8 0.5,12.399 C 0.5,18.999 5.8,24.297 12.399,24.297 C 18.999,24.297 24.296,18.999 24.296,12.399 C 24.296,5.799 18.897,0.5 12.397,0.5 L 12.397,0.5 M 18.296,16 C 17.696,17 16.997,18.1 16.798,18.397 L 16.798,18.497 L 16.698,18.497 C 16.299,18.696 14.899,19.095 14.201,19.095 C 14.201,19.095 14.102,19.095 14.102,19.095 L 14.003,19.095 C 13.203,18.798 11.403,18.198 10.804,17.999 C 9.804,18.398 8.804,18.898 7.804,19.398 C 7.304,19.597 6.904,19.894 6.404,20.093 C 6.404,20.093 6.404,20.093 6.404,20.093 C 6.404,20.093 5.404,20.693 5.204,20.693 L 4.905,20.693 L 4.905,20.396 C 4.905,19.796 5.004,18.397 5.103,18.1 C 6.401,4.1 11.6,2.902 11.798,2.802 C 11.996,2.802 12.296,2.703 12.494,2.703 L 12.593,2.703 C 12.692,2.703 12.692,2.703 12.791,2.703 C 17.09,2.703 21.289,13.703 21.488,14.203 C 21.588,14.401 21.787,15.099 21.887,15.198 L 21.987,15.498 L 18.289,15.997 L 18.289,15.997 M 12.39,0.497 " style="fill: #ffbc00; fill-opacity: 1.0; stroke: none" visibility="hidden"><set attributeName="visibility" attributeType="CSS" to="visible" begin="0s; loop.end" fill="none"/><animateTransform attributeName="transform" type="translate" additive="replace" begin="0s; loop.end" dur="6s" repeatCount="1" fill="none" from="0.0 0.0" to="0.0 0.0" calcMode="discrete"/><animateTransform attributeName="transform" type="translate" additive="sum" begin="0s; loop.end" dur="6s" repeatCount="1" fill="none" from="-12.399 -12.3985" to="-12.399 -12.3985" calcMode="discrete"/></path><path id="iddc6095b55eb1c7b2db99e68e" d="M 13.899,7.8 C 13.201,7.8 12.602,7.501 12.602,7.501 L 11.503,7.001 L 12.701,7.001 C 13.099,7.001 13.297,6.803 13.495,6.504 C 13.693,6.205 13.594,5.906 13.495,5.706 C 13.195,5.206 12.895,5.008 12.498,5.008 C 11.498,5.008 10.399,6.107 9.899,6.706 C 9.3,7.606 8.8,8.705 8.403,10.005 C 9.601,9.406 11.899,8.507 15.798,7.809 L 15.996,7.809 L 16.694,9.809 L 16.397,9.908 C 10.797,10.908 8.198,12.606 7.599,13.003 C 7.3,14.303 7.102,15.803 6.904,17.3 L 10.303,16.101 L 12.303,16.8 C 13.103,17.097 13.603,17.197 14.002,17.396 C 14.601,17.396 15.799,17.099 16.198,16.9 C 16.397,16.603 17.397,15.103 17.796,14.303 L 17.896,14.204 L 17.996,14.204 C 18.695,14.105 19.294,14.006 19.693,14.006 C 18.994,11.907 17.395,8.407 15.995,6.507 C 15.495,7.606 14.495,7.806 13.896,7.806 L 13.896,7.806 M 16.395,13.305 C 15.895,14.404 14.296,15.003 13.098,15.003 C 12.499,15.003 11.999,14.805 11.602,14.607 L 11.404,14.508 L 12.204,13.008 L 12.504,13.206 C 12.603,13.305 12.901,13.404 13.201,13.404 C 14.001,13.404 14.801,13.005 14.9,12.705 L 14.999,12.405 L 16.596,13.103 L 16.397,13.301 L 16.397,13.301 M 13.897,7.801 " style="fill: #ffbc00; fill-opacity: 1.0; stroke: none" visibility="hidden"><set attributeName="visibility" attributeType="CSS" to="visible" begin="0s; loop.end" fill="none"/><animateTransform attributeName="transform" type="translate" additive="replace" begin="0s; loop.end" dur="6s" repeatCount="1" fill="none" from="0.898 -1.198" to="0.898 -1.198" calcMode="discrete"/><animateTransform attributeName="transform" type="translate" additive="sum" begin="0s; loop.end" dur="6s" repeatCount="1" fill="none" from="-13.297 -11.2005" to="-13.297 -11.2005" calcMode="discrete"/></path></g></g><g id="idb135ec40feeac3999c986f66" visibility="hidden"><set attributeName="visibility" attributeType="CSS" to="visible" begin="0s; loop.end" fill="none"/><animateTransform attributeName="transform" type="translate" additive="replace" begin="0s; loop.end" dur="6s" repeatCount="1" fill="none" from="14.495 -0.044" to="14.495 -0.044" calcMode="discrete"/><animateTransform attributeName="transform" type="translate" additive="sum" begin="0s; loop.end" dur="6s" repeatCount="1" fill="none" from="-0.0 -0.0" to="-0.0 -0.0" calcMode="discrete"/><path id="id929ac2961a8e6294dec93783" d="M 123.5,7.5 L 116.5,7.5 C 115,7.5 113.803,8.599 113.803,9.996 L 113.803,14.596 C 113.803,15.993 115,17.091 116.5,17.091 L 123.5,17.091 C 125,17.091 126.197,15.992 126.197,14.595 L 126.197,9.995 C 126.197,8.695 125,7.497 123.5,7.497 L 123.5,7.497 M 123.303,13.997 C 123.303,14.497 122.903,14.797 122.403,14.797 L 117.503,14.797 C 117.003,14.797 116.603,14.4 116.603,14 L 116.603,10.603 C 116.603,10.103 117.003,9.706 117.503,9.706 L 122.403,9.706 C 122.903,9.706 123.303,10.105 123.303,10.605 L 123.303,14.004 L 123.303,14.004 M 138,7.604 L 138,14.004 L 133.101,8.504 C 132.503,7.705 131.503,7.606 131.204,7.507 L 131.204,7.507 L 128.204,7.507 L 128.204,17.007 L 131.204,17.007 L 131.204,10.608 C 132.103,11.608 135.302,15.307 136.201,16.106 C 137.4,17.106 138.099,17.106 138.099,17.106 L 138.099,17.106 L 140.998,17.106 L 140.998,7.606 L 137.998,7.606 L 137.998,7.606 M 52.399,14.106 L 47.5,8.606 C 46.903,7.807 45.903,7.708 45.605,7.609 L 45.605,7.609 L 42.605,7.609 L 42.605,17.109 L 45.605,17.109 L 45.605,10.71 C 46.504,11.71 49.702,15.409 50.601,16.208 C 51.801,17.208 52.501,17.208 52.501,17.208 L 52.501,17.208 L 55.4,17.208 L 55.4,7.608 L 52.4,7.608 L 52.4,14.108 L 52.4,14.108 M 57.299,17.107 L 60.299,17.107 L 60.299,7.607 L 57.299,7.607 L 57.299,17.107 L 57.299,17.107 M 89.097,9.908 L 92.997,9.908 L 92.997,17.107 L 95.997,17.107 L 95.997,9.908 L 99.796,9.908 L 99.796,7.61 L 89.096,7.61 L 89.096,9.908 L 89.096,9.908 M 112.195,10.507 C 112.392,10.207 112.592,10.108 112.691,9.708 C 112.99,8.408 111.09,7.71 110.291,7.71 L 108.492,7.71 L 103.893,7.71 L 103.893,7.71 L 100.893,7.71 L 100.893,7.71 L 100.893,10.01 L 100.893,17.208 L 103.893,17.208 L 103.893,9.908 L 108.992,9.908 L 106.193,13.007 L 109.89,17.107 L 113.587,17.107 L 109.89,13.007 L 112.189,10.507 L 112.189,10.507 M 82.689,7.607 L 82.689,7.607 L 82.689,7.607 L 77.689,17.107 L 80.886,17.207 L 84.286,10.707 L 87.686,17.207 L 90.883,17.107 L 85.883,7.607 L 82.686,7.607 L 82.686,7.607 M 33.987,7.607 L 33.987,7.607 L 33.987,7.607 L 28.987,17.107 L 32.187,17.207 L 35.586,10.707 L 38.985,17.207 L 42.185,17.107 L 37.185,7.607 L 33.985,7.607 L 33.985,7.607 M 74.384,7.607 L 74.384,7.607 C 74.085,7.607 73.388,7.706 72.888,8.404 L 69.789,13.103 L 66.69,8.404 C 66.29,7.706 65.593,7.607 65.294,7.607 L 65.294,7.607 L 62.294,7.607 L 62.294,17.106 L 65.294,17.106 L 65.294,10.907 L 69.194,17.106 L 69.694,17.106 L 69.793,17.106 L 70.293,17.106 L 74.293,10.806 L 74.293,17.106 L 77.293,17.106 L 77.293,7.607 L 74.494,7.607 C 74.593,7.607 74.593,7.607 74.396,7.607 L 74.396,7.607 M 123.494,7.508 " style="fill: #ffffff; fill-opacity: 1.0; stroke: none" visibility="hidden"><set attributeName="visibility" attributeType="CSS" to="visible" begin="0s; loop.end" fill="none"/><animateTransform attributeName="transform" type="translate" additive="replace" begin="0s; loop.end" dur="6s" repeatCount="1" fill="none" from="0.0 0.0" to="0.0 0.0" calcMode="discrete"/><animateTransform attributeName="transform" type="translate" additive="sum" begin="0s; loop.end" dur="6s" repeatCount="1" fill="none" from="-84.9945 -12.3535" to="-84.9945 -12.3535" calcMode="discrete"/></path><path id="idbf624da3d15117d419872c99" d="M 123.5,7.5 L 116.5,7.5 C 115,7.5 113.803,8.599 113.803,9.996 L 113.803,14.596 C 113.803,15.993 115,17.091 116.5,17.091 L 123.5,17.091 C 125,17.091 126.197,15.992 126.197,14.595 L 126.197,9.995 C 126.197,8.695 125,7.497 123.5,7.497 L 123.5,7.497 M 123.303,13.997 C 123.303,14.497 122.903,14.797 122.403,14.797 L 117.503,14.797 C 117.003,14.797 116.603,14.4 116.603,14 L 116.603,10.603 C 116.603,10.103 117.003,9.706 117.503,9.706 L 122.403,9.706 C 122.903,9.706 123.303,10.105 123.303,10.605 L 123.303,14.004 L 123.303,14.004 M 138,7.604 L 138,14.004 L 133.101,8.504 C 132.503,7.705 131.503,7.606 131.204,7.507 L 131.204,7.507 L 128.204,7.507 L 128.204,17.007 L 131.204,17.007 L 131.204,10.608 C 132.103,11.608 135.302,15.307 136.201,16.106 C 137.4,17.106 138.099,17.106 138.099,17.106 L 138.099,17.106 L 140.998,17.106 L 140.998,7.606 L 137.998,7.606 L 137.998,7.606 M 52.399,14.106 L 47.5,8.606 C 46.903,7.807 45.903,7.708 45.605,7.609 L 45.605,7.609 L 42.605,7.609 L 42.605,17.109 L 45.605,17.109 L 45.605,10.71 C 46.504,11.71 49.702,15.409 50.601,16.208 C 51.801,17.208 52.501,17.208 52.501,17.208 L 52.501,17.208 L 55.4,17.208 L 55.4,7.608 L 52.4,7.608 L 52.4,14.108 L 52.4,14.108 M 57.299,17.107 L 60.299,17.107 L 60.299,7.607 L 57.299,7.607 L 57.299,17.107 L 57.299,17.107 M 89.097,9.908 L 92.997,9.908 L 92.997,17.107 L 95.997,17.107 L 95.997,9.908 L 99.796,9.908 L 99.796,7.61 L 89.096,7.61 L 89.096,9.908 L 89.096,9.908 M 112.195,10.507 C 112.392,10.207 112.592,10.108 112.691,9.708 C 112.99,8.408 111.09,7.71 110.291,7.71 L 108.492,7.71 L 103.893,7.71 L 103.893,7.71 L 100.893,7.71 L 100.893,7.71 L 100.893,10.01 L 100.893,17.208 L 103.893,17.208 L 103.893,9.908 L 108.992,9.908 L 106.193,13.007 L 109.89,17.107 L 113.587,17.107 L 109.89,13.007 L 112.189,10.507 L 112.189,10.507 M 82.689,7.607 L 82.689,7.607 L 82.689,7.607 L 77.689,17.107 L 80.886,17.207 L 84.286,10.707 L 87.686,17.207 L 90.883,17.107 L 85.883,7.607 L 82.686,7.607 L 82.686,7.607 M 33.987,7.607 L 33.987,7.607 L 33.987,7.607 L 28.987,17.107 L 32.187,17.207 L 35.586,10.707 L 38.985,17.207 L 42.185,17.107 L 37.185,7.607 L 33.985,7.607 L 33.985,7.607 M 74.384,7.607 L 74.384,7.607 C 74.085,7.607 73.388,7.706 72.888,8.404 L 69.789,13.103 L 66.69,8.404 C 66.29,7.706 65.593,7.607 65.294,7.607 L 65.294,7.607 L 62.294,7.607 L 62.294,17.106 L 65.294,17.106 L 65.294,10.907 L 69.194,17.106 L 69.694,17.106 L 69.793,17.106 L 70.293,17.106 L 74.293,10.806 L 74.293,17.106 L 77.293,17.106 L 77.293,7.607 L 74.494,7.607 C 74.593,7.607 74.593,7.607 74.396,7.607 L 74.396,7.607 M 123.494,7.508 " style="fill: none; stroke: #000000; stroke-width: 0.5; stroke-opacity: 1.0" visibility="hidden"><set attributeName="visibility" attributeType="CSS" to="visible" begin="0s; loop.end" fill="none"/><animateTransform attributeName="transform" type="translate" additive="replace" begin="0s; loop.end" dur="6s" repeatCount="1" fill="none" from="0.0 0.0" to="0.0 0.0" calcMode="discrete"/><animateTransform attributeName="transform" type="translate" additive="sum" begin="0s; loop.end" dur="6s" repeatCount="1" fill="none" from="-84.9945 -12.3535" to="-84.9945 -12.3535" calcMode="discrete"/></path></g><path id="iddc5621f7f0566191a44c4099" d="M 12.399,0.5 C 18.999,0.5 24.296,5.8 24.296,12.399 C 24.296,18.999 18.998,24.297 12.398,24.297 C 5.798,24.297 0.499,18.898 0.499,12.398 C 0.499,5.898 5.799,0.499 12.398,0.499 M 12.398,-0.001 C 5.599,-0.001 -0,5.598 -0,12.397 C -0,19.196 5.599,24.796 12.398,24.796 C 19.197,24.796 24.796,19.196 24.796,12.398 C 24.796,5.599 19.197,-0.001 12.397,-0.001 L 12.397,-0.001 L 12.397,-0.001 M 12.397,0.499 " style="fill: #000000; fill-opacity: 1.0; stroke: none" visibility="hidden"><set attributeName="visibility" attributeType="CSS" to="visible" begin="0s; loop.end" fill="none"/><animateTransform attributeName="transform" type="translate" additive="replace" begin="0s; loop.end" dur="6s" repeatCount="1" fill="none" from="-58.099 0.0" to="-58.099 0.0" calcMode="discrete"/><animateTransform attributeName="transform" type="translate" additive="sum" begin="0s; loop.end" dur="6s" repeatCount="1" fill="none" from="-12.3995 -12.398" to="-12.3995 -12.398" calcMode="discrete"/></path></g></g></g><script><![CDATA[
      var document = null;
      var root = null;
      var scheduler = null;
      var schedulerEnabled = ((navigator.userAgent.indexOf('Safari') != -1) && (navigator.userAgent.indexOf('Chrome') == -1)) ||
                             (navigator.userAgent.match(/(iPod|iPhone|iPad)/) && navigator.userAgent.match(/AppleWebKit/) && !navigator.userAgent.match('CriOS'));
      var currentEvent = 0;
      var previousTime = 0;
      var nextTime = 0;

      function initialize(event)
      {
         document = event.target.ownerDocument;
         root = document.documentElement;
         if (schedulerEnabled && events.length > 0) {
             var event = events[currentEvent];
             while (currentEvent < events.length && events[currentEvent]["time"] == 0) { 
                 processEvent();
                 currentEvent += 1;
             }
             if (currentEvent < events.length) {
                 var time = events[currentEvent]["time"];
                 nextTime = time;
                 scheduler = setTimeout(processSchedule, time - previousTime);
             }
         }
      };

      function freeze()
      {
         root.pauseAnimations();
      };

      function processSchedule()
      {
         if (currentEvent < events.length) {
             var event = events[currentEvent];
             previousTime = nextTime;
             while (currentEvent < events.length && events[currentEvent]["time"] == nextTime) { 
                 processEvent();
                 currentEvent += 1;
             }
             if (currentEvent < events.length) {
                 var time = events[currentEvent]["time"];
                 nextTime = time;
                 scheduler = setTimeout(processSchedule, time - previousTime);
             }
         }
      };

      function processEvent()
      {
         var event = events[currentEvent];
         if ("audio_start" in event) { 
             event = event["audio_start"];
             var id = event["id"];
             var audio = document.getElementById(id);
             if (audio != undefined)
                 audio.play();
         }
         else if ("audio_stop" in event) { 
             event = event["audio_stop"];
             var id = event["id"];
             var audio = document.getElementById(id);
             if (audio != undefined) {
                 audio.pause();
                 audio.currentTime = 0;
             }
         }
         else if ("pause" in event) { 
             event = event["pause"];
             freeze();
         }
      };

    var events = [{"time": 5650,"pause": {}}]
]]></script><rect id="looper" x="0" y="0" width="1" height="1" style="fill: none; stroke: none"><set id="loop" attributeName="x" to="0" begin="0s; loop.end" dur="6s" fill="freeze"/></rect></svg>